<?xml version="1.0" encoding="UTF-8" standalone="no"?>
<svg
   height="24px"
   viewBox="0 -960 960 960"
   width="24px"
   fill="#FFFFFF"
   version="1.1"
   id="svg1"
   sodipodi:docname="cached_24dp_FFFFFF_FILL0_wght400_GRAD0_opsz24.svg"
   inkscape:version="1.3.2 (091e20e, 2023-11-25, custom)"
   xmlns:inkscape="http://www.inkscape.org/namespaces/inkscape"
   xmlns:sodipodi="http://sodipodi.sourceforge.net/DTD/sodipodi-0.dtd"
   xmlns="http://www.w3.org/2000/svg"
   xmlns:svg="http://www.w3.org/2000/svg">
  <defs
     id="defs1" />
  <sodipodi:namedview
     id="namedview1"
     pagecolor="#000000"
     bordercolor="#000000"
     borderopacity="0.25"
     inkscape:showpageshadow="2"
     inkscape:pageopacity="0.0"
     inkscape:pagecheckerboard="true"
     inkscape:deskcolor="#d1d1d1"
     inkscape:zoom="22.627417"
     inkscape:cx="12.727922"
     inkscape:cy="7.7560775"
     inkscape:current-layer="svg1" />
  <path
     id="path1"
     d="m 200,-622.96875 c -10.66663,0 -19.96879,3.95313 -27.96875,11.95313 l -104.0625,103.98437 c -7.333305,7.3333 -10.9375,16.71361 -10.9375,28.04687 0,11.3333 3.604195,20.63543 10.9375,27.96876 7.333305,7.33329 16.713586,11.01562 28.046875,11.01562 11.333295,0 20.635425,-3.68233 27.968755,-11.01562 L 160,-487.03125 V -480 c 0,89.33297 31.31795,165.03149 93.98438,227.03125 62.66639,61.99976 138.7139,92.96875 228.04687,92.96875 15.99992,0 31.96883,-1.18232 47.96875,-3.51562 15.99992,-2.33334 31.69799,-6.15108 47.03125,-11.48438 11.33329,-3.33333 19.10417,-10.13546 23.4375,-20.46875 4.33333,-10.33329 3.84892,-20.89587 -1.48437,-31.5625 -5.33333,-9.99996 -12.96876,-16.9375 -22.96876,-20.9375 -9.99995,-4 -20.69798,-4.34893 -32.03124,-1.01563 -9.99999,3.33333 -20.13546,5.6198 -30.46876,6.95313 -10.33326,1.33333 -20.81774,2.03125 -31.48437,2.03125 -67.33306,0 -124.5627,-23.33353 -171.5625,-70 C 263.46895,-356.66647 240,-413.33361 240,-480 v -7.03125 l 36.01562,36.01563 c 7.33333,7.33329 16.63546,11.01562 27.96876,11.01562 11.33326,0 20.71357,-3.68233 28.04687,-11.01562 7.3333,-7.33333 10.9375,-16.63546 10.9375,-27.96876 0,-11.33326 -3.6042,-20.71357 -10.9375,-28.04687 l -104.0625,-103.98437 c -7.99996,-8 -17.30212,-11.95313 -27.96875,-11.95313 z m 440,105.9375 c -0.57503,0.23548 -1.08096,0.59579 -1.64062,0.85937 0.2939,0.52367 0.89649,1.50565 1.01562,1.71876 0.18321,0.32771 0.56105,0.65166 0.46875,1.01562 -0.0782,0.30833 -1.15545,-1.56932 -0.3125,-0.0781 -0.51373,-0.17748 -0.14553,-0.11734 0.3125,0.54687 0.0809,0.11728 0.0487,0.29713 0.15625,0.39063 0.65504,0.56945 1.41222,1.04237 2.10938,1.5625 -0.73875,-1.99698 -1.40376,-4.00929 -2.10938,-6.01563 z m 145.54688,170.07813 c -1.56795,1.21909 -3.15715,2.39865 -4.6875,3.67187 1.61555,-1.05868 3.16175,-2.33778 4.6875,-3.67187 z" />
  <path
     id="path1-7"
     d="m 764.0625,-622.96875 c 10.66663,0 19.96879,3.95313 27.96875,11.95313 l 104.0625,103.98437 c 7.3333,7.3333 10.9375,16.71361 10.9375,28.04687 0,11.3333 -3.6042,20.63543 -10.9375,27.96876 -7.33331,7.33329 -16.71359,11.01562 -28.04688,11.01562 -11.33329,0 -20.63542,-3.68233 -27.96875,-11.01562 L 804.0625,-487.03125 V -480 c 0,89.33297 -31.31795,165.03149 -93.98438,227.03125 C 647.41173,-190.96899 571.36422,-160 482.03125,-160 c -15.99992,0 -31.96883,-1.18232 -47.96875,-3.51562 -15.99992,-2.33334 -31.69799,-6.15108 -47.03125,-11.48438 -11.33329,-3.33333 -19.10417,-10.13546 -23.4375,-20.46875 -4.33333,-10.33329 -3.84892,-20.89587 1.48437,-31.5625 5.33333,-9.99996 12.96876,-16.9375 22.96876,-20.9375 9.99995,-4 20.69798,-4.34893 32.03124,-1.01563 9.99999,3.33333 20.13546,5.6198 30.46876,6.95313 10.33326,1.33333 20.81774,2.03125 31.48437,2.03125 67.33306,0 124.5627,-23.33353 171.5625,-70 46.9998,-46.66647 70.46875,-103.33361 70.46875,-170 v -7.03125 l -36.01562,36.01563 C 680.71355,-443.68233 671.41142,-440 660.07812,-440 c -11.33326,0 -20.71357,-3.68233 -28.04687,-11.01562 -7.3333,-7.33333 -10.9375,-16.63546 -10.9375,-27.96876 0,-11.33326 3.6042,-20.71357 10.9375,-28.04687 l 104.0625,-103.98437 c 7.99996,-8 17.30212,-11.95313 27.96875,-11.95313 z m -440,105.9375 c 0.57503,0.23548 1.08096,0.59579 1.64062,0.85937 -0.2939,0.52367 -0.89649,1.50565 -1.01562,1.71876 -0.18321,0.32771 -0.56105,0.65166 -0.46875,1.01562 0.0782,0.30833 1.15545,-1.56932 0.3125,-0.0781 0.51373,-0.17748 0.14553,-0.11734 -0.3125,0.54687 -0.0809,0.11728 -0.0487,0.29713 -0.15625,0.39063 -0.65504,0.56945 -1.41222,1.04237 -2.10938,1.5625 0.73875,-1.99698 1.40376,-4.00929 2.10938,-6.01563 z m -145.54688,170.07813 c 1.56795,1.21909 3.15715,2.39865 4.6875,3.67187 -1.61555,-1.05868 -3.16175,-2.33778 -4.6875,-3.67187 z" />
</svg>
